<svg xmlns="http://www.w3.org/2000/svg" height="40" width="40" fill="ghostwhite"><path d="M11.542 36.458q-1.25 0-2.146-.896-.896-.895-.896-2.187 0-1.292.896-2.187.896-.896 2.187-.896 1.292 0 2.188.896.896.895.896 2.187 0 1.292-.917 2.187-.917.896-2.208.896Zm16.833 0q-1.292 0-2.187-.896-.896-.895-.896-2.187 0-1.292.916-2.187.917-.896 2.167-.896 1.292 0 2.187.896.896.895.896 2.187 0 1.292-.896 2.187-.895.896-2.187.896ZM8.333 6.292h24.625q1 0 1.5.875t0 1.791l-5.75 10.334q-.416.791-1.187 1.27-.771.48-1.646.48H13.292l-1.875 3.375q-.084.166.021.395.104.23.354.23h19.75v2.833H11.375q-1.833 0-2.646-1.417-.812-1.416-.021-2.916l2.5-4.584-6.25-13.166H1.667V2.958H6.75Z"/></svg>